<svg xmlns="http://www.w3.org/2000/svg" viewBox="0 0 520 360" role="img" aria-label="Checklist worksheet illustration"><rect width="520" height="360" rx="28" fill="#fff3df"/><rect x="86" y="44" width="310" height="270" rx="20" fill="#fffdf8"/><rect x="126" y="82" width="150" height="15" rx="8" fill="#245c52"/><g fill="none" stroke="#d98c36" stroke-width="8" stroke-linecap="round" stroke-linejoin="round"><path d="M126 145l13 13 30-38"/><path d="M126 210l13 13 30-38"/><path d="M126 275l13 13 30-38"/></g><g fill="#e2ded2"><rect x="190" y="125" width="145" height="14" rx="7"/><rect x="190" y="151" width="108" height="10" rx="5"/><rect x="190" y="190" width="155" height="14" rx="7"/><rect x="190" y="216" width="92" height="10" rx="5"/><rect x="190" y="255" width="138" height="14" rx="7"/><rect x="190" y="281" width="116" height="10" rx="5"/></g><circle cx="415" cy="80" r="42" fill="#245c52" opacity=".14"/></svg>