<svg xmlns="http://www.w3.org/2000/svg" viewBox="0 0 520 360" role="img" aria-label="Will-making options comparison illustration"><rect width="520" height="360" rx="28" fill="#fffdf8"/><rect x="68" y="66" width="112" height="210" rx="18" fill="#e7f4ef"/><rect x="204" y="66" width="112" height="210" rx="18" fill="#fff3df"/><rect x="340" y="66" width="112" height="210" rx="18" fill="#e7f4ef"/><g fill="#245c52"><rect x="94" y="104" width="60" height="14" rx="7"/><rect x="230" y="104" width="60" height="14" rx="7"/><rect x="366" y="104" width="60" height="14" rx="7"/></g><g fill="#d98c36"><circle cx="124" cy="168" r="28"/><circle cx="260" cy="168" r="28"/><circle cx="396" cy="168" r="28"/></g><g stroke="#245c52" stroke-width="6" fill="none" stroke-linecap="round"><path d="M108 226h32M244 226h32M380 226h32"/><path d="M100 250h48M236 250h48M372 250h48"/></g><path d="M175 178h29M311 178h29" stroke="#d98c36" stroke-width="8" stroke-linecap="round" stroke-dasharray="4 14"/></svg>