<svg xmlns="http://www.w3.org/2000/svg" viewBox="0 0 640 420" role="img" aria-labelledby="title desc"><title id="title">Continue your planning path</title><desc id="desc">A calm dashboard path with checklist cards and an arrow showing the next step.</desc><defs><linearGradient id="g" x1="0" y1="0" x2="1" y2="1"><stop offset="0" stop-color="#e7f4ef"/><stop offset="1" stop-color="#fff7e8"/></linearGradient></defs><rect width="640" height="420" rx="34" fill="url(#g)"/><circle cx="530" cy="74" r="48" fill="#f1c46a" opacity=".65"/><rect x="72" y="74" width="210" height="272" rx="24" fill="#fff" stroke="#d7e4df" stroke-width="4"/><rect x="106" y="112" width="116" height="18" rx="9" fill="#173f44"/><rect x="106" y="152" width="140" height="12" rx="6" fill="#cfe6df"/><rect x="106" y="184" width="138" height="12" rx="6" fill="#cfe6df"/><rect x="106" y="216" width="112" height="12" rx="6" fill="#cfe6df"/><circle cx="90" cy="158" r="9" fill="#1c7c68"/><path d="M85 158l4 4 8-11" fill="none" stroke="#fff" stroke-width="3" stroke-linecap="round" stroke-linejoin="round"/><circle cx="90" cy="190" r="9" fill="#1c7c68"/><path d="M85 190l4 4 8-11" fill="none" stroke="#fff" stroke-width="3" stroke-linecap="round" stroke-linejoin="round"/><circle cx="90" cy="222" r="9" fill="#fff" stroke="#1c7c68" stroke-width="3"/><rect x="350" y="106" width="188" height="72" rx="20" fill="#173f44"/><text x="444" y="151" text-anchor="middle" font-family="Arial, sans-serif" font-size="24" fill="#fff" font-weight="700">Next step</text><path d="M300 210C350 210 368 150 414 150" fill="none" stroke="#1c7c68" stroke-width="12" stroke-linecap="round"/><path d="M410 122l40 28-44 22" fill="none" stroke="#1c7c68" stroke-width="12" stroke-linecap="round" stroke-linejoin="round"/><rect x="344" y="230" width="210" height="88" rx="22" fill="#fff" stroke="#d7e4df" stroke-width="4"/><rect x="374" y="260" width="132" height="14" rx="7" fill="#1c7c68"/><rect x="374" y="290" width="104" height="12" rx="6" fill="#cfe6df"/></svg>