<svg xmlns="http://www.w3.org/2000/svg" width="520" height="360" viewBox="0 0 520 360" role="img" aria-labelledby="t d"><title id="t">Estate planning dashboard</title><desc id="d">A dashboard with progress cards, checkmarks, and planning tools.</desc><rect width="520" height="360" rx="34" fill="#e7f4ef"/><rect x="64" y="58" width="392" height="250" rx="28" fill="#fff" stroke="#245c52" stroke-width="8"/><path d="M64 122h392" stroke="#245c52" stroke-width="8"/><circle cx="104" cy="91" r="10" fill="#d98c36"/><circle cx="134" cy="91" r="10" fill="#d98c36"/><circle cx="164" cy="91" r="10" fill="#d98c36"/><rect x="100" y="154" width="120" height="54" rx="16" fill="#fff3df" stroke="#245c52" stroke-width="5"/><rect x="246" y="154" width="120" height="54" rx="16" fill="#fff3df" stroke="#245c52" stroke-width="5"/><rect x="100" y="230" width="266" height="28" rx="14" fill="#e7f4ef"/><path d="M100 244h176" stroke="#d98c36" stroke-width="28" stroke-linecap="round"/><path d="M122 178l14 14 32-34M268 178l14 14 32-34" fill="none" stroke="#245c52" stroke-width="8" stroke-linecap="round" stroke-linejoin="round"/><path d="M398 200a58 58 0 1 1-58 58" fill="none" stroke="#245c52" stroke-width="12" stroke-linecap="round"/><path d="M398 142v58h58" fill="none" stroke="#d98c36" stroke-width="12" stroke-linecap="round" stroke-linejoin="round"/></svg>