<svg xmlns="http://www.w3.org/2000/svg" width="900" height="620" viewBox="0 0 900 620" role="img" aria-labelledby="t d"><title id="t">Decision helper cards</title><desc id="d">A friendly decision path with checklist cards and branching arrows.</desc><rect width="900" height="620" rx="42" fill="#e7f4ef"/><circle cx="720" cy="110" r="70" fill="#fff3df"/><path d="M90 110h250a30 30 0 0 1 30 30v105a30 30 0 0 1-30 30H90a30 30 0 0 1-30-30V140a30 30 0 0 1 30-30Z" fill="#fffdf8" stroke="#245c52" stroke-width="5"/><path d="M95 160h195M95 205h160" stroke="#172029" stroke-width="16" stroke-linecap="round"/><circle cx="320" cy="203" r="23" fill="#d98c36"/><path d="m309 203 8 8 17-23" fill="none" stroke="#fff" stroke-width="8" stroke-linecap="round" stroke-linejoin="round"/><path d="M520 80h250a30 30 0 0 1 30 30v120a30 30 0 0 1-30 30H520a30 30 0 0 1-30-30V110a30 30 0 0 1 30-30Z" fill="#fffdf8" stroke="#245c52" stroke-width="5"/><path d="M535 135h180M535 180h145" stroke="#172029" stroke-width="16" stroke-linecap="round"/><path d="M370 192c57 0 75-32 120-32" fill="none" stroke="#245c52" stroke-width="10" stroke-linecap="round"/><path d="m470 128 30 31-31 30" fill="none" stroke="#245c52" stroke-width="10" stroke-linecap="round" stroke-linejoin="round"/><path d="M185 365h530a36 36 0 0 1 36 36v110a36 36 0 0 1-36 36H185a36 36 0 0 1-36-36V401a36 36 0 0 1 36-36Z" fill="#fffdf8" stroke="#d98c36" stroke-width="5"/><path d="M215 425h360M215 470h265" stroke="#172029" stroke-width="18" stroke-linecap="round"/><circle cx="650" cy="455" r="45" fill="#245c52"/><path d="m629 456 16 16 35-43" fill="none" stroke="#fff" stroke-width="12" stroke-linecap="round" stroke-linejoin="round"/></svg>