<svg xmlns="http://www.w3.org/2000/svg" width="520" height="360" viewBox="0 0 520 360" role="img" aria-labelledby="t d"><title id="t">Document locator folder and map pins</title><desc id="d">A secure folder, checklist, and location pins representing a document locator worksheet.</desc><rect width="520" height="360" rx="34" fill="#e7f4ef"/><circle cx="410" cy="80" r="48" fill="#fff3df"/><path d="M78 102h128l22 30h214v150a34 34 0 0 1-34 34H86a34 34 0 0 1-34-34V128a26 26 0 0 1 26-26Z" fill="#fff" stroke="#245c52" stroke-width="8"/><path d="M98 154h312" stroke="#d98c36" stroke-width="10" stroke-linecap="round"/><path d="M120 198h152M120 236h202" stroke="#245c52" stroke-width="10" stroke-linecap="round"/><path d="M375 188c0 34-42 78-42 78s-42-44-42-78a42 42 0 1 1 84 0Z" fill="#d98c36"/><circle cx="333" cy="188" r="15" fill="#fff"/><path d="M406 236l28 28 46-56" fill="none" stroke="#245c52" stroke-width="12" stroke-linecap="round" stroke-linejoin="round"/></svg>