<svg xmlns="http://www.w3.org/2000/svg" viewBox="0 0 520 360" role="img" aria-labelledby="title desc">
<title id="title">Estate binder index illustration</title><desc id="desc">Original Will Checklist illustration with documents, checkmarks, and organized planning cards.</desc>
<defs><linearGradient id="g" x1="0" x2="1" y1="0" y2="1"><stop stop-color="#e7f4ef"/><stop offset="1" stop-color="#fff3df"/></linearGradient><filter id="s" x="-20%" y="-20%" width="140%" height="140%"><feDropShadow dx="0" dy="12" stdDeviation="12" flood-color="#172029" flood-opacity=".13"/></filter></defs>
<rect width="520" height="360" rx="34" fill="url(#g)"/>
<circle cx="430" cy="62" r="38" fill="#ffffff" opacity=".72"/>
<circle cx="84" cy="304" r="52" fill="#ffffff" opacity=".55"/>
<g filter="url(#s)"><rect x="96" y="72" width="328" height="220" rx="26" fill="#fff" stroke="#d8e5df"/><rect x="128" y="110" width="152" height="16" rx="8" fill="#245c52"/><rect x="128" y="144" width="238" height="12" rx="6" fill="#cfdcd6"/><rect x="128" y="170" width="214" height="12" rx="6" fill="#e1d7c5"/><rect x="128" y="196" width="250" height="12" rx="6" fill="#cfdcd6"/><rect x="128" y="222" width="178" height="12" rx="6" fill="#e1d7c5"/></g>
<g transform="translate(324 124)"><circle cx="48" cy="48" r="48" fill="#7fb69e"/><path d="M27 50l14 14 30-35" fill="none" stroke="#172029" stroke-width="10" stroke-linecap="round" stroke-linejoin="round"/></g>
<g transform="translate(80 84)"><rect x="0" y="0" width="92" height="116" rx="18" fill="#f8faf8" stroke="#d8e5df"/><path d="M22 37h48M22 58h38M22 79h50" stroke="#8aa096" stroke-width="8" stroke-linecap="round"/></g>
</svg>