<svg xmlns="http://www.w3.org/2000/svg" viewBox="0 0 520 360" role="img" aria-label="Executor folder and organized documents illustration"><rect width="520" height="360" rx="28" fill="#e7f4ef"/><path d="M78 106h135l30 34h200a20 20 0 0 1 20 20v128a22 22 0 0 1-22 22H79a22 22 0 0 1-22-22V128a22 22 0 0 1 21-22z" fill="#d98c36" opacity=".88"/><path d="M92 150h350a20 20 0 0 1 19 25l-33 121a22 22 0 0 1-21 16H66a22 22 0 0 1-21-28l27-119a20 20 0 0 1 20-15z" fill="#fffdf8"/><rect x="132" y="190" width="150" height="16" rx="8" fill="#245c52"/><rect x="132" y="224" width="220" height="10" rx="5" fill="#e2ded2"/><rect x="132" y="250" width="180" height="10" rx="5" fill="#e2ded2"/><circle cx="384" cy="220" r="43" fill="#245c52"/><path d="M365 221l14 14 30-38" fill="none" stroke="#fffdf8" stroke-width="8" stroke-linecap="round" stroke-linejoin="round"/></svg>