<svg xmlns="http://www.w3.org/2000/svg" width="520" height="360" viewBox="0 0 520 360" role="img" aria-labelledby="t d"><title id="t">Family conversation cards</title><desc id="d">Speech bubbles and planning cards for a family estate planning conversation.</desc><rect width="520" height="360" rx="34" fill="#fff3df"/><circle cx="115" cy="108" r="42" fill="#245c52"/><circle cx="210" cy="110" r="38" fill="#d98c36"/><circle cx="304" cy="108" r="42" fill="#245c52"/><path d="M74 240c8-54 76-69 118-25 44-48 112-28 126 25" fill="none" stroke="#245c52" stroke-width="14" stroke-linecap="round"/><rect x="308" y="166" width="150" height="96" rx="22" fill="#fff" stroke="#245c52" stroke-width="7"/><path d="M335 195h88M335 226h62" stroke="#d98c36" stroke-width="9" stroke-linecap="round"/><path d="M94 45h242a24 24 0 0 1 24 24v44a24 24 0 0 1-24 24H164l-42 28 12-28H94a24 24 0 0 1-24-24V69a24 24 0 0 1 24-24Z" fill="#fff" stroke="#245c52" stroke-width="7"/><path d="M116 82h178" stroke="#245c52" stroke-width="8" stroke-linecap="round"/><path d="M116 108h125" stroke="#d98c36" stroke-width="8" stroke-linecap="round"/></svg>