<svg xmlns="http://www.w3.org/2000/svg" viewBox="0 0 720 440" role="img" aria-labelledby="title desc">
  <title id="title">Finished six-step checklist illustration</title>
  <desc id="desc">A calm checklist with a check mark, folder, and simple path line.</desc>
  <rect width="720" height="440" rx="36" fill="#F6F9F7"/>
  <circle cx="565" cy="112" r="70" fill="#DCEFE7"/>
  <path d="M530 111l23 24 47-54" fill="none" stroke="#24735B" stroke-width="16" stroke-linecap="round" stroke-linejoin="round"/>
  <rect x="94" y="88" width="320" height="252" rx="24" fill="#FFFFFF" stroke="#C9D9D2" stroke-width="3"/>
  <rect x="124" y="126" width="180" height="18" rx="9" fill="#2F463F" opacity=".85"/>
  <rect x="124" y="172" width="238" height="14" rx="7" fill="#D9E5E0"/>
  <rect x="124" y="212" width="238" height="14" rx="7" fill="#D9E5E0"/>
  <rect x="124" y="252" width="188" height="14" rx="7" fill="#D9E5E0"/>
  <path d="M145 175l11 11 22-25" fill="none" stroke="#24735B" stroke-width="7" stroke-linecap="round" stroke-linejoin="round"/>
  <path d="M145 215l11 11 22-25" fill="none" stroke="#24735B" stroke-width="7" stroke-linecap="round" stroke-linejoin="round"/>
  <path d="M145 255l11 11 22-25" fill="none" stroke="#24735B" stroke-width="7" stroke-linecap="round" stroke-linejoin="round"/>
  <path d="M436 248c43 0 77 29 77 64v26H358v-26c0-35 35-64 78-64z" fill="#F2C879"/>
  <path d="M360 311h236v42a26 26 0 0 1-26 26H386a26 26 0 0 1-26-26v-42z" fill="#E8B95E"/>
  <path d="M384 310v-40c0-13 10-23 23-23h44l23 22h93c13 0 23 10 23 23v18" fill="#F8DDA0" stroke="#B9842A" stroke-width="3"/>
  <path d="M96 374h520" stroke="#C9D9D2" stroke-width="5" stroke-linecap="round"/>
</svg>