<svg xmlns="http://www.w3.org/2000/svg" viewBox="0 0 520 360" role="img" aria-labelledby="t d"><title id="t">Estate planning glossary illustration</title><desc id="d">Open book with plain language labels and search symbol.</desc><rect width="520" height="360" rx="34" fill="#e7f4ef"/><path d="M92 78h142c25 0 45 20 45 45v173H137c-25 0-45-20-45-45Z" fill="#fffaf1" stroke="#245c52" stroke-width="4"/><path d="M279 123c0-25 20-45 45-45h104v173c0 25-20 45-45 45H279Z" fill="#fff" stroke="#245c52" stroke-width="4"/><path d="M137 128h96M137 166h74M137 204h92M324 128h68M324 166h84M324 204h58" stroke="#245c52" stroke-width="12" stroke-linecap="round" opacity=".25"/><circle cx="390" cy="259" r="34" fill="none" stroke="#d98c36" stroke-width="12"/><path d="M415 284l34 34" stroke="#d98c36" stroke-width="12" stroke-linecap="round"/><path d="M279 103v196" stroke="#245c52" stroke-width="5" opacity=".35"/></svg>