<svg xmlns="http://www.w3.org/2000/svg" viewBox="0 0 520 360" role="img" aria-labelledby="title desc">
<title id="title">Guided flow illustration</title><desc id="desc">A simple path with numbered steps, a dashboard card, and privacy-safe checklist icons.</desc>
<defs><linearGradient id="bg" x1="0" x2="1" y1="0" y2="1"><stop stop-color="#EAF5F1"/><stop offset="1" stop-color="#FFF4E3"/></linearGradient><filter id="s" x="-20%" y="-20%" width="140%" height="140%"><feDropShadow dx="0" dy="12" stdDeviation="12" flood-color="#173f44" flood-opacity=".14"/></filter></defs>
<rect width="520" height="360" rx="34" fill="url(#bg)"/>
<path d="M78 260 C140 182 190 230 250 154 C304 86 374 112 438 72" fill="none" stroke="#2f6f73" stroke-width="14" stroke-linecap="round" stroke-dasharray="1 26"/>
<g filter="url(#s)"><rect x="54" y="62" width="154" height="190" rx="24" fill="#fff" stroke="#d8e3dc"/><rect x="74" y="88" width="88" height="12" rx="6" fill="#2f6f73"/><rect x="74" y="118" width="108" height="10" rx="5" fill="#d8e3dc"/><rect x="74" y="140" width="82" height="10" rx="5" fill="#d8e3dc"/><circle cx="92" cy="190" r="22" fill="#f0a84a"/><path d="M82 190l8 8 17-20" fill="none" stroke="#173f44" stroke-width="5" stroke-linecap="round" stroke-linejoin="round"/></g>
<g filter="url(#s)"><rect x="226" y="118" width="132" height="104" rx="22" fill="#173f44"/><text x="292" y="159" text-anchor="middle" font-family="Arial, sans-serif" font-size="34" font-weight="800" fill="#fff">1</text><text x="292" y="188" text-anchor="middle" font-family="Arial, sans-serif" font-size="16" font-weight="700" fill="#eaf5f1">Next step</text></g>
<g filter="url(#s)"><rect x="348" y="190" width="124" height="96" rx="22" fill="#fff" stroke="#d8e3dc"/><rect x="368" y="214" width="84" height="11" rx="5" fill="#2f6f73"/><rect x="368" y="240" width="62" height="10" rx="5" fill="#d8e3dc"/><path d="M372 262h28" stroke="#f0a84a" stroke-width="8" stroke-linecap="round"/></g>
<g><circle cx="402" cy="80" r="34" fill="#fff" stroke="#d8e3dc"/><path d="M388 79l10 10 20-24" fill="none" stroke="#2f6f73" stroke-width="7" stroke-linecap="round" stroke-linejoin="round"/><path d="M402 112v26" stroke="#173f44" stroke-width="5" stroke-linecap="round"/></g>
<text x="260" y="330" text-anchor="middle" font-family="Arial, sans-serif" font-size="18" font-weight="800" fill="#173f44">One clear path. No guessing.</text>
</svg>