<svg xmlns="http://www.w3.org/2000/svg" viewBox="0 0 900 620" role="img" aria-label="Organized estate planning checklist illustration"><defs><linearGradient id="g" x1="0" x2="1" y1="0" y2="1"><stop offset="0" stop-color="#e7f4ef"/><stop offset="1" stop-color="#fff3df"/></linearGradient><filter id="s"><feDropShadow dx="0" dy="12" stdDeviation="14" flood-color="#172029" flood-opacity=".12"/></filter></defs><rect width="900" height="620" rx="36" fill="url(#g)"/><circle cx="730" cy="120" r="72" fill="#d98c36" opacity=".18"/><circle cx="144" cy="500" r="94" fill="#245c52" opacity=".12"/><g filter="url(#s)"><rect x="184" y="84" width="370" height="470" rx="24" fill="#fffdf8"/><rect x="224" y="130" width="230" height="20" rx="10" fill="#245c52"/><rect x="224" y="172" width="280" height="10" rx="5" fill="#e2ded2"/><rect x="224" y="198" width="240" height="10" rx="5" fill="#e2ded2"/><g stroke="#245c52" stroke-width="7" stroke-linecap="round" stroke-linejoin="round" fill="none"><path d="M236 274l18 18 39-50"/><path d="M236 352l18 18 39-50"/><path d="M236 430l18 18 39-50"/></g><g fill="#e7f4ef"><rect x="322" y="250" width="150" height="18" rx="9"/><rect x="322" y="278" width="110" height="12" rx="6"/><rect x="322" y="328" width="160" height="18" rx="9"/><rect x="322" y="356" width="122" height="12" rx="6"/><rect x="322" y="406" width="144" height="18" rx="9"/><rect x="322" y="434" width="96" height="12" rx="6"/></g></g><g filter="url(#s)"><rect x="548" y="166" width="190" height="244" rx="22" fill="#245c52"/><rect x="582" y="204" width="122" height="12" rx="6" fill="#fffdf8" opacity=".95"/><rect x="582" y="236" width="96" height="12" rx="6" fill="#fffdf8" opacity=".68"/><path d="M590 314l28 28 72-88" fill="none" stroke="#d98c36" stroke-width="13" stroke-linecap="round" stroke-linejoin="round"/></g><path d="M126 126c42-40 108-42 150-4" fill="none" stroke="#d98c36" stroke-width="10" stroke-linecap="round" opacity=".55"/><path d="M650 492c38 28 82 32 132 6" fill="none" stroke="#245c52" stroke-width="10" stroke-linecap="round" opacity=".35"/></svg>