<svg xmlns="http://www.w3.org/2000/svg" width="780" height="590" viewBox="0 0 780 590" role="img" aria-labelledby="title desc">
<title id="title">Will Checklist six step preview</title>
<desc id="desc">A calm product preview showing six simple will checklist steps and a note card.</desc>
<defs>
  <linearGradient id="bg" x1="0" y1="0" x2="1" y2="1"><stop offset="0" stop-color="#fffef9"/><stop offset="1" stop-color="#edf8f3"/></linearGradient>
  <linearGradient id="mint" x1="0" y1="0" x2="1" y2="1"><stop offset="0" stop-color="#2f7568"/><stop offset="1" stop-color="#245c52"/></linearGradient>
  <filter id="shadow" x="-20%" y="-20%" width="140%" height="140%"><feDropShadow dx="0" dy="22" stdDeviation="24" flood-color="#173d36" flood-opacity=".16"/></filter>
</defs>
<rect width="780" height="590" rx="46" fill="#fbf8ef"/>
<circle cx="95" cy="88" r="76" fill="#dbeee7" opacity=".58"/>
<circle cx="690" cy="495" r="95" fill="#f2dfb9" opacity=".32"/>
<g filter="url(#shadow)">
  <rect x="110" y="62" width="560" height="466" rx="34" fill="url(#bg)" stroke="#e2dccf"/>
  <rect x="146" y="102" width="228" height="32" rx="16" fill="#e7f4ef"/>
  <rect x="146" y="152" width="330" height="24" rx="12" fill="#173d36" opacity=".92"/>
  <rect x="146" y="188" width="410" height="16" rx="8" fill="#60706a" opacity=".34"/>
  <rect x="146" y="216" width="320" height="16" rx="8" fill="#60706a" opacity=".24"/>
  <g transform="translate(146 260)">
    <rect width="488" height="188" rx="24" fill="#fffdf8" stroke="#e4ded2"/>
    <g font-family="Arial, sans-serif" font-size="17" font-weight="700" fill="#173d36">
      <g transform="translate(28 28)">
        <circle cx="13" cy="13" r="13" fill="url(#mint)"/><path d="M7 13.4l4 4.2 8-9" fill="none" stroke="#fff" stroke-width="3" stroke-linecap="round" stroke-linejoin="round"/><text x="42" y="18">Setup</text>
      </g>
      <g transform="translate(28 70)">
        <circle cx="13" cy="13" r="13" fill="url(#mint)"/><path d="M7 13.4l4 4.2 8-9" fill="none" stroke="#fff" stroke-width="3" stroke-linecap="round" stroke-linejoin="round"/><text x="42" y="18">Checklist</text>
      </g>
      <g transform="translate(28 112)">
        <circle cx="13" cy="13" r="13" fill="#edf7f3" stroke="#bcd9ce"/><text x="9" y="19" font-size="16">3</text><text x="42" y="18">Documents</text>
      </g>
      <g transform="translate(262 28)">
        <circle cx="13" cy="13" r="13" fill="#edf7f3" stroke="#bcd9ce"/><text x="9" y="19" font-size="16">4</text><text x="42" y="18">Beneficiaries</text>
      </g>
      <g transform="translate(262 70)">
        <circle cx="13" cy="13" r="13" fill="#edf7f3" stroke="#bcd9ce"/><text x="9" y="19" font-size="16">5</text><text x="42" y="18">Summary</text>
      </g>
      <g transform="translate(262 112)">
        <circle cx="13" cy="13" r="13" fill="#edf7f3" stroke="#bcd9ce"/><text x="9" y="19" font-size="16">6</text><text x="42" y="18">Final review</text>
      </g>
    </g>
  </g>
  <g transform="translate(410 92)">
    <rect width="192" height="126" rx="22" fill="#fffaf0" stroke="#eadfca"/>
    <rect x="24" y="24" width="104" height="13" rx="6.5" fill="#245c52" opacity=".9"/>
    <rect x="24" y="54" width="140" height="10" rx="5" fill="#6c786f" opacity=".35"/>
    <rect x="24" y="77" width="120" height="10" rx="5" fill="#6c786f" opacity=".24"/>
    <rect x="24" y="100" width="80" height="12" rx="6" fill="#d9eee5"/>
  </g>
  <rect x="204" y="474" width="372" height="36" rx="18" fill="#245c52"/>
  <text x="390" y="497" text-anchor="middle" font-family="Arial, sans-serif" font-size="15" font-weight="800" fill="#fff">One clear next step</text>
</g>
</svg>