<svg xmlns="http://www.w3.org/2000/svg" viewBox="0 0 760 590" role="img" aria-labelledby="title desc">
<title id="title">Six step will preparation checklist preview</title>
<desc id="desc">A clean preview card showing six checklist steps with safe note reminders.</desc>
<defs>
  <linearGradient id="bg" x1="0" x2="1" y1="0" y2="1"><stop offset="0" stop-color="#fffefa"/><stop offset="1" stop-color="#edf8f4"/></linearGradient>
  <filter id="shadow" x="-20%" y="-20%" width="140%" height="140%"><feDropShadow dx="0" dy="22" stdDeviation="22" flood-color="#102a27" flood-opacity=".16"/></filter>
</defs>
<rect width="760" height="590" rx="44" fill="none"/>
<g filter="url(#shadow)">
  <rect x="74" y="54" width="612" height="482" rx="34" fill="url(#bg)" stroke="#d8ebe4" stroke-width="2"/>
  <rect x="116" y="96" width="250" height="22" rx="11" fill="#e5f5ef"/>
  <rect x="116" y="136" width="350" height="36" rx="10" fill="#16352f" opacity=".95"/>
  <rect x="116" y="188" width="500" height="16" rx="8" fill="#607178" opacity=".36"/>
  <rect x="116" y="220" width="528" height="54" rx="18" fill="#fffefa" stroke="#dfe8e3"/>
  <circle cx="146" cy="247" r="13" fill="#176357"/><path d="M140 247l5 5 10-13" fill="none" stroke="#fffefa" stroke-width="4" stroke-linecap="round" stroke-linejoin="round"/>
  <rect x="174" y="237" width="155" height="13" rx="7" fill="#183832"/>
  <rect x="174" y="257" width="315" height="10" rx="5" fill="#6b7a7f" opacity=".28"/>
  <rect x="116" y="288" width="528" height="54" rx="18" fill="#fffefa" stroke="#dfe8e3"/>
  <circle cx="146" cy="315" r="13" fill="#176357"/><path d="M140 315l5 5 10-13" fill="none" stroke="#fffefa" stroke-width="4" stroke-linecap="round" stroke-linejoin="round"/>
  <rect x="174" y="305" width="145" height="13" rx="7" fill="#183832"/>
  <rect x="174" y="325" width="270" height="10" rx="5" fill="#6b7a7f" opacity=".28"/>
  <rect x="116" y="356" width="528" height="54" rx="18" fill="#fffefa" stroke="#dfe8e3"/>
  <circle cx="146" cy="383" r="13" fill="#e5f5ef"/><text x="146" y="388" text-anchor="middle" font-family="Inter,Arial" font-size="14" font-weight="900" fill="#176357">3</text>
  <rect x="174" y="373" width="118" height="13" rx="7" fill="#183832"/>
  <rect x="174" y="393" width="330" height="10" rx="5" fill="#6b7a7f" opacity=".28"/>
  <rect x="116" y="438" width="294" height="52" rx="16" fill="#176357"/>
  <text x="263" y="471" text-anchor="middle" font-family="Inter,Arial" font-size="19" font-weight="900" fill="#fffefa">Start checklist</text>
  <rect x="432" y="438" width="170" height="52" rx="16" fill="#fffefa" stroke="#9ccdc0"/>
  <text x="517" y="471" text-anchor="middle" font-family="Inter,Arial" font-size="19" font-weight="900" fill="#176357">Continue</text>
</g>
<circle cx="660" cy="92" r="40" fill="#f0b65f" opacity=".18"/>
<circle cx="92" cy="512" r="34" fill="#176357" opacity=".08"/>
</svg>
