<svg xmlns="http://www.w3.org/2000/svg" viewBox="0 0 760 590" role="img" aria-labelledby="title desc">
<title id="title">Six-step checklist preview</title>
<desc id="desc">A clean product preview card showing the six-step will checklist flow.</desc>
<defs>
  <linearGradient id="bg" x1="0" y1="0" x2="1" y2="1">
    <stop offset="0" stop-color="#f4fbf7"/>
    <stop offset="1" stop-color="#fff8e9"/>
  </linearGradient>
  <filter id="shadow" x="-20%" y="-20%" width="140%" height="140%">
    <feDropShadow dx="0" dy="22" stdDeviation="24" flood-color="#143f39" flood-opacity="0.13"/>
  </filter>
</defs>
<rect width="760" height="590" rx="46" fill="url(#bg)"/>
<circle cx="662" cy="86" r="82" fill="#dff1ea" opacity=".72"/>
<circle cx="92" cy="504" r="96" fill="#f4dfb2" opacity=".38"/>
<g filter="url(#shadow)">
  <rect x="116" y="78" width="528" height="434" rx="34" fill="#fffef9" stroke="#d7e9e2"/>
  <rect x="148" y="112" width="464" height="72" rx="22" fill="#1f6b5f"/>
  <circle cx="184" cy="148" r="18" fill="#fff" opacity=".92"/>
  <path d="M176 148l6 6 12-14" fill="none" stroke="#1f6b5f" stroke-width="5" stroke-linecap="round" stroke-linejoin="round"/>
  <text x="218" y="143" font-family="Arial, sans-serif" font-size="19" font-weight="800" fill="#fff">Will Checklist</text>
  <text x="218" y="166" font-family="Arial, sans-serif" font-size="13" fill="#dff1ea">safe notes · six simple steps</text>
  <g font-family="Arial, sans-serif">
    <g transform="translate(148 218)">
      <rect width="464" height="48" rx="16" fill="#eef8f3" stroke="#cce7dd"/>
      <circle cx="28" cy="24" r="14" fill="#1f6b5f"/><path d="M21 24l5 5 10-12" fill="none" stroke="#fff" stroke-width="4" stroke-linecap="round" stroke-linejoin="round"/>
      <text x="58" y="30" font-size="16" font-weight="800" fill="#24413c">Setup</text>
      <text x="380" y="30" font-size="13" font-weight="700" fill="#1f6b5f">saved</text>
    </g>
    <g transform="translate(148 278)">
      <rect width="464" height="48" rx="16" fill="#eef8f3" stroke="#cce7dd"/>
      <circle cx="28" cy="24" r="14" fill="#1f6b5f"/><path d="M21 24l5 5 10-12" fill="none" stroke="#fff" stroke-width="4" stroke-linecap="round" stroke-linejoin="round"/>
      <text x="58" y="30" font-size="16" font-weight="800" fill="#24413c">Checklist</text>
      <text x="380" y="30" font-size="13" font-weight="700" fill="#1f6b5f">saved</text>
    </g>
    <g transform="translate(148 338)">
      <rect width="464" height="56" rx="18" fill="#ffffff" stroke="#d8ebe4"/>
      <circle cx="28" cy="28" r="15" fill="#fff8e9" stroke="#e3c98f"/>
      <text x="58" y="34" font-size="17" font-weight="850" fill="#173f38">Documents</text>
      <rect x="344" y="15" width="92" height="26" rx="13" fill="#1f6b5f"/>
      <text x="366" y="33" font-size="12" font-weight="800" fill="#fff">next</text>
    </g>
    <g transform="translate(148 412)" fill="#6a7a76" font-size="14" font-weight="700">
      <text x="0" y="0">Safe notes only:</text>
      <text x="0" y="24">labels and locations, never passwords or numbers.</text>
    </g>
  </g>
</g>
</svg>