<svg xmlns="http://www.w3.org/2000/svg" width="780" height="590" viewBox="0 0 780 590" role="img" aria-labelledby="title desc">
<title id="title">Six-step will checklist preview</title>
<desc id="desc">A calm product-style preview showing the six steps of the Will Checklist organizer.</desc>
<defs>
  <linearGradient id="bg" x1="0" y1="0" x2="1" y2="1"><stop stop-color="#f4fbf7"/><stop offset="1" stop-color="#fff4df"/></linearGradient>
  <linearGradient id="card" x1="0" y1="0" x2="0" y2="1"><stop stop-color="#fffef9"/><stop offset="1" stop-color="#fbf7ee"/></linearGradient>
  <filter id="shadow" x="-20%" y="-20%" width="140%" height="140%"><feDropShadow dx="0" dy="24" stdDeviation="24" flood-color="#172029" flood-opacity=".14"/></filter>
</defs>
<rect width="780" height="590" rx="42" fill="url(#bg)"/>
<circle cx="664" cy="78" r="74" fill="#e7f4ef" opacity=".88"/>
<circle cx="108" cy="496" r="92" fill="#fff0d8" opacity=".95"/>
<g filter="url(#shadow)">
  <rect x="112" y="72" width="556" height="446" rx="34" fill="url(#card)" stroke="#e2ded2"/>
</g>
<rect x="154" y="116" width="250" height="22" rx="11" fill="#245c52" opacity=".95"/>
<rect x="154" y="154" width="392" height="14" rx="7" fill="#dbe7e2"/>
<rect x="154" y="180" width="312" height="14" rx="7" fill="#e8ded0"/>
<g transform="translate(154 230)">
  <rect width="472" height="54" rx="18" fill="#f2faf7" stroke="#cfe3dc"/>
  <circle cx="29" cy="27" r="15" fill="#245c52"/>
  <path d="M22 27.5l5.2 5.2L37 21.5" fill="none" stroke="#fff" stroke-width="4" stroke-linecap="round" stroke-linejoin="round"/>
  <text x="58" y="25" font-family="Arial, sans-serif" font-size="15" font-weight="700" fill="#172029">Step 1: Setup</text>
  <text x="58" y="43" font-family="Arial, sans-serif" font-size="12" fill="#5c6773">Confirm safe notes only</text>
</g>
<g transform="translate(154 296)">
  <rect width="472" height="54" rx="18" fill="#fff" stroke="#e2ded2"/>
  <circle cx="29" cy="27" r="15" fill="#245c52" opacity=".15"/>
  <text x="24" y="32" font-family="Arial, sans-serif" font-size="14" font-weight="800" fill="#245c52">2</text>
  <text x="58" y="25" font-family="Arial, sans-serif" font-size="15" font-weight="700" fill="#172029">Checklist</text>
  <text x="58" y="43" font-family="Arial, sans-serif" font-size="12" fill="#5c6773">Check what applies</text>
</g>
<g transform="translate(154 362)">
  <rect width="472" height="54" rx="18" fill="#fff" stroke="#e2ded2"/>
  <circle cx="29" cy="27" r="15" fill="#245c52" opacity=".15"/>
  <text x="24" y="32" font-family="Arial, sans-serif" font-size="14" font-weight="800" fill="#245c52">3</text>
  <text x="58" y="25" font-family="Arial, sans-serif" font-size="15" font-weight="700" fill="#172029">Documents</text>
  <text x="58" y="43" font-family="Arial, sans-serif" font-size="12" fill="#5c6773">Use labels and locations</text>
</g>
<g transform="translate(154 436)">
  <rect width="222" height="42" rx="21" fill="#245c52"/>
  <text x="111" y="27" text-anchor="middle" font-family="Arial, sans-serif" font-size="14" font-weight="800" fill="#fff">Save and continue</text>
  <rect x="246" y="0" width="170" height="42" rx="21" fill="#fff8ea" stroke="#ecd4a7"/>
  <text x="331" y="26" text-anchor="middle" font-family="Arial, sans-serif" font-size="13" font-weight="700" fill="#49351c">Blanks are okay</text>
</g>
</svg>