<svg xmlns="http://www.w3.org/2000/svg" width="900" height="620" viewBox="0 0 900 620" role="img" aria-labelledby="t d"><title id="t">Attorney meeting brief</title><desc id="d">A document brief with questions and notes for a professional meeting.</desc><rect width="900" height="620" rx="42" fill="#e7f4ef"/><path d="M240 65h420a40 40 0 0 1 40 40v410a40 40 0 0 1-40 40H240a40 40 0 0 1-40-40V105a40 40 0 0 1 40-40Z" fill="#fffdf8" stroke="#245c52" stroke-width="6"/><path d="M285 140h210M285 190h300M285 240h260" stroke="#172029" stroke-width="18" stroke-linecap="round"/><path d="M285 315h330M285 365h270M285 415h310" stroke="#5c6773" stroke-width="14" stroke-linecap="round"/><rect x="540" y="115" width="95" height="95" rx="18" fill="#fff3df" stroke="#d98c36" stroke-width="5"/><path d="m563 164 21 20 34-48" fill="none" stroke="#245c52" stroke-width="12" stroke-linecap="round" stroke-linejoin="round"/><circle cx="210" cy="145" r="35" fill="#d98c36" opacity=".75"/><circle cx="698" cy="485" r="52" fill="#245c52" opacity=".9"/></svg>