<svg xmlns="http://www.w3.org/2000/svg" viewBox="0 0 640 420" role="img" aria-labelledby="title desc"><title id="title">Simple setup wizard</title><desc id="desc">A friendly step-by-step path with one question card at a time.</desc><rect width="640" height="420" rx="32" fill="#eef7f4"/><path d="M96 310c62-84 141-124 238-121 88 3 153-29 210-96" fill="none" stroke="#1c7c68" stroke-width="16" stroke-linecap="round" stroke-dasharray="3 28"/><g fill="#fff" stroke="#1b3555" stroke-width="5"><rect x="70" y="72" width="190" height="138" rx="24"/><rect x="226" y="168" width="190" height="138" rx="24"/><rect x="382" y="72" width="190" height="138" rx="24"/></g><circle cx="132" cy="122" r="26" fill="#f5b841"/><path d="M121 121l8 8 17-21" fill="none" stroke="#1b3555" stroke-width="6" stroke-linecap="round" stroke-linejoin="round"/><path d="M114 164h104M114 184h78M270 218h104M270 240h112M426 122h104M426 145h76" stroke="#1b3555" stroke-width="8" stroke-linecap="round"/><circle cx="288" cy="84" r="34" fill="#1c7c68"/><text x="288" y="96" text-anchor="middle" font-family="Arial, sans-serif" font-size="34" font-weight="700" fill="#fff">1</text><circle cx="320" cy="226" r="34" fill="#1c7c68"/><text x="320" y="238" text-anchor="middle" font-family="Arial, sans-serif" font-size="34" font-weight="700" fill="#fff">2</text><circle cx="548" cy="230" r="34" fill="#1c7c68"/><text x="548" y="242" text-anchor="middle" font-family="Arial, sans-serif" font-size="34" font-weight="700" fill="#fff">3</text><path d="M480 278l28 29 58-68" fill="none" stroke="#f5b841" stroke-width="14" stroke-linecap="round" stroke-linejoin="round"/></svg>