<svg xmlns="http://www.w3.org/2000/svg" width="520" height="360" viewBox="0 0 520 360" role="img" aria-labelledby="t d"><title id="t">Planning help request</title><desc id="d">A request form, routing arrows, and professional planning notes.</desc><rect width="520" height="360" rx="34" fill="#fff3df"/><rect x="72" y="54" width="214" height="252" rx="26" fill="#fff" stroke="#245c52" stroke-width="8"/><path d="M112 108h134M112 150h134M112 192h86" stroke="#245c52" stroke-width="10" stroke-linecap="round"/><rect x="112" y="228" width="116" height="38" rx="19" fill="#d98c36"/><path d="M336 90h84a28 28 0 0 1 28 28v52a28 28 0 0 1-28 28h-84a28 28 0 0 1-28-28v-52a28 28 0 0 1 28-28Z" fill="#e7f4ef" stroke="#245c52" stroke-width="7"/><path d="M350 132h54M350 158h36" stroke="#245c52" stroke-width="8" stroke-linecap="round"/><path d="M286 178c34 0 54-18 72-46" fill="none" stroke="#d98c36" stroke-width="10" stroke-linecap="round"/><path d="M350 131l16 2-8 15" fill="none" stroke="#d98c36" stroke-width="8" stroke-linecap="round" stroke-linejoin="round"/><circle cx="386" cy="252" r="50" fill="#245c52"/><path d="M360 256l20 20 42-52" fill="none" stroke="#fff" stroke-width="11" stroke-linecap="round" stroke-linejoin="round"/></svg>