<svg xmlns="http://www.w3.org/2000/svg" viewBox="0 0 640 420" role="img" aria-labelledby="title desc">
<title id="title">Safe versus unsafe examples</title><desc id="desc">Two columns compare safe labels with unsafe private details.</desc>
<rect width="640" height="420" rx="36" fill="#fff3df"/>
<rect x="58" y="68" width="246" height="284" rx="28" fill="#fffdf8" stroke="#245c52" stroke-width="5"/>
<rect x="336" y="68" width="246" height="284" rx="28" fill="#fffdf8" stroke="#b76b66" stroke-width="5"/>
<circle cx="94" cy="112" r="20" fill="#245c52"/><path d="m82 112 9 9 18-22" fill="none" stroke="#fff" stroke-width="6" stroke-linecap="round" stroke-linejoin="round"/>
<circle cx="372" cy="112" r="20" fill="#b76b66"/><path d="m363 103 18 18m0-18-18 18" stroke="#fff" stroke-width="6" stroke-linecap="round"/>
<path d="M126 108h118" stroke="#245c52" stroke-width="13" stroke-linecap="round"/><path d="M404 108h118" stroke="#b76b66" stroke-width="13" stroke-linecap="round"/>
<g stroke="#d8d0c0" stroke-width="11" stroke-linecap="round"><path d="M92 170h162"/><path d="M92 220h132"/><path d="M92 270h184"/><path d="M370 170h162"/><path d="M370 220h132"/><path d="M370 270h184"/></g>
<path d="M315 205h18" stroke="#172029" stroke-width="10" stroke-linecap="round"/><path d="m326 188 18 17-18 17" fill="none" stroke="#172029" stroke-width="10" stroke-linecap="round" stroke-linejoin="round" opacity=".45"/>
</svg>