<svg xmlns="http://www.w3.org/2000/svg" width="520" height="360" viewBox="0 0 520 360" role="img" aria-labelledby="t d"><title id="t">Seven day planning calendar</title><desc id="d">A seven day calendar with checkmarks for a will preparation plan.</desc><rect width="520" height="360" rx="34" fill="#e7f4ef"/><rect x="70" y="60" width="380" height="250" rx="30" fill="#fff" stroke="#245c52" stroke-width="8"/><path d="M70 122h380" stroke="#245c52" stroke-width="8"/><path d="M138 42v48M382 42v48" stroke="#d98c36" stroke-width="14" stroke-linecap="round"/><g fill="#fff3df" stroke="#245c52" stroke-width="5"><rect x="102" y="150" width="54" height="42" rx="12"/><rect x="174" y="150" width="54" height="42" rx="12"/><rect x="246" y="150" width="54" height="42" rx="12"/><rect x="318" y="150" width="54" height="42" rx="12"/><rect x="102" y="212" width="54" height="42" rx="12"/><rect x="174" y="212" width="54" height="42" rx="12"/><rect x="246" y="212" width="54" height="42" rx="12"/></g><path d="M113 170l12 12 22-28M185 170l12 12 22-28M257 170l12 12 22-28M329 170l12 12 22-28M113 232l12 12 22-28M185 232l12 12 22-28M257 232l12 12 22-28" fill="none" stroke="#d98c36" stroke-width="7" stroke-linecap="round" stroke-linejoin="round"/></svg>