<svg xmlns="http://www.w3.org/2000/svg" viewBox="0 0 640 420" role="img" aria-labelledby="t d"><title id="t">Safe notes illustration</title><desc id="d">A notepad with safe labels and a shield reminding users not to enter secrets.</desc><rect width="640" height="420" rx="36" fill="#f6fbf8"/><rect x="92" y="54" width="320" height="300" rx="28" fill="#fff" stroke="#dfe8e2" stroke-width="3"/><rect x="130" y="104" width="198" height="18" rx="9" fill="#245c52" opacity=".22"/><rect x="130" y="148" width="235" height="14" rx="7" fill="#d98c36" opacity=".35"/><rect x="130" y="184" width="210" height="14" rx="7" fill="#d98c36" opacity=".25"/><rect x="130" y="220" width="245" height="14" rx="7" fill="#d98c36" opacity=".2"/><circle cx="112" cy="112" r="10" fill="#245c52"/><circle cx="112" cy="154" r="10" fill="#245c52"/><circle cx="112" cy="190" r="10" fill="#245c52"/><circle cx="112" cy="226" r="10" fill="#245c52"/><path d="M443 118 l86-34 86 34 v84 c0 64-43 104-86 124-43-20-86-60-86-124z" fill="#245c52"/><path d="M498 205 l26 28 55-72" fill="none" stroke="#fff" stroke-width="18" stroke-linecap="round" stroke-linejoin="round"/><text x="252" y="304" font-family="Arial, sans-serif" font-size="20" font-weight="700" fill="#172029" text-anchor="middle">Labels, not secrets</text></svg>