<svg xmlns="http://www.w3.org/2000/svg" width="900" height="620" viewBox="0 0 900 620" role="img" aria-labelledby="t d"><title id="t">State resource finder</title><desc id="d">Map-inspired cards for finding state and legal help resources.</desc><rect width="900" height="620" rx="42" fill="#fff3df"/><path d="M120 110h660a34 34 0 0 1 34 34v360a34 34 0 0 1-34 34H120a34 34 0 0 1-34-34V144a34 34 0 0 1 34-34Z" fill="#fffdf8" stroke="#245c52" stroke-width="6"/><path d="M150 180h190v95H150zM375 180h190v95H375zM600 180h160v95H600zM150 315h260v95H150zM445 315h315v95H445z" fill="#e7f4ef" stroke="#245c52" stroke-width="4"/><circle cx="245" cy="228" r="24" fill="#d98c36"/><circle cx="470" cy="228" r="24" fill="#d98c36"/><circle cx="680" cy="228" r="24" fill="#d98c36"/><path d="M180 455h330" stroke="#172029" stroke-width="18" stroke-linecap="round"/><path d="M180 495h220" stroke="#172029" stroke-width="18" stroke-linecap="round"/><path d="M650 455c-44 0-80-36-80-80s36-80 80-80 80 36 80 80c0 18-6 34-16 48l58 58" fill="none" stroke="#245c52" stroke-width="18" stroke-linecap="round"/><path d="m626 374 18 18 36-48" fill="none" stroke="#d98c36" stroke-width="13" stroke-linecap="round" stroke-linejoin="round"/></svg>