<svg xmlns="http://www.w3.org/2000/svg" viewBox="0 0 520 360" role="img" aria-labelledby="t d"><title id="t">Planning summary builder illustration</title><desc id="d">A one-page planning brief assembled from checklist cards.</desc><rect width="520" height="360" rx="34" fill="#e7f4ef"/><rect x="58" y="48" width="246" height="268" rx="22" fill="#fffaf1" stroke="#245c52" stroke-width="4"/><rect x="88" y="82" width="156" height="18" rx="9" fill="#245c52"/><rect x="88" y="124" width="184" height="12" rx="6" fill="#dbe8e3"/><rect x="88" y="152" width="146" height="12" rx="6" fill="#dbe8e3"/><rect x="88" y="180" width="172" height="12" rx="6" fill="#dbe8e3"/><rect x="88" y="220" width="84" height="34" rx="17" fill="#d98c36"/><path d="M358 72h82a22 22 0 0 1 22 22v150a22 22 0 0 1-22 22h-82a22 22 0 0 1-22-22V94a22 22 0 0 1 22-22Z" fill="#fff" stroke="#245c52" stroke-width="4"/><path d="M361 128h74M361 165h74M361 202h52" stroke="#245c52" stroke-width="12" stroke-linecap="round" opacity=".28"/><path d="M325 108l-31 45 34 45" fill="none" stroke="#d98c36" stroke-width="12" stroke-linecap="round" stroke-linejoin="round"/><circle cx="399" cy="257" r="37" fill="#245c52"/><path d="M380 257l13 13 27-31" fill="none" stroke="#fffaf1" stroke-width="9" stroke-linecap="round" stroke-linejoin="round"/></svg>