<svg xmlns="http://www.w3.org/2000/svg" viewBox="0 0 640 420" role="img" aria-labelledby="t d"><title id="t">Usability test checklist illustration</title><desc id="d">A simple clipboard, cursor, and completed checkmarks for testing a website flow.</desc><rect width="640" height="420" rx="36" fill="#f5f1e8"/><rect x="130" y="62" width="300" height="300" rx="26" fill="#fff" stroke="#d9ccb8" stroke-width="4"/><rect x="210" y="38" width="140" height="56" rx="20" fill="#2f6f73"/><circle cx="188" cy="155" r="18" fill="#f0a84a"/><path d="M178 154l8 8 17-22" fill="none" stroke="#173f44" stroke-width="8" stroke-linecap="round" stroke-linejoin="round"/><rect x="230" y="142" width="140" height="18" rx="9" fill="#d9e9e6"/><circle cx="188" cy="220" r="18" fill="#f0a84a"/><path d="M178 219l8 8 17-22" fill="none" stroke="#173f44" stroke-width="8" stroke-linecap="round" stroke-linejoin="round"/><rect x="230" y="207" width="168" height="18" rx="9" fill="#d9e9e6"/><circle cx="188" cy="285" r="18" fill="#fff" stroke="#2f6f73" stroke-width="5"/><rect x="230" y="272" width="115" height="18" rx="9" fill="#d9e9e6"/><path d="M438 248l88 48-43 12 26 52-31 15-25-52-31 32z" fill="#173f44"/><path d="M451 260l47 26-28 8 18 37-12 6-18-38-20 22z" fill="#fff" opacity=".23"/></svg>